<svg xmlns="http://www.w3.org/2000/svg" width="1120" height="560" viewBox="0 0 1120 560" role="img" aria-label="EEG image representation heatmap">
  <rect width="100%" height="100%" fill="#f8fafc"/>
  <text x="72" y="40" font-family="Arial" font-size="24" fill="#0f172a">Image-Based EEG Representation</text>
  <text x="72" y="64" font-family="Arial" font-size="13" fill="#475569">time_frequency_bandpower_image: bandpower windows converted into a CNN/pretrained-model style heatmap.</text>
  <rect x="72" y="120" width="976" height="330" fill="#ffffff" stroke="#cbd5e1"/>
  <rect x="72.0" y="120.0" width="20.6" height="55.3" fill="rgb(176,227,253)"/><rect x="92.3" y="120.0" width="20.6" height="55.3" fill="rgb(189,232,253)"/><rect x="112.7" y="120.0" width="20.6" height="55.3" fill="rgb(199,235,253)"/><rect x="133.0" y="120.0" width="20.6" height="55.3" fill="rgb(160,222,252)"/><rect x="153.3" y="120.0" width="20.6" height="55.3" fill="rgb(124,210,251)"/><rect x="173.7" y="120.0" width="20.6" height="55.3" fill="rgb(174,227,253)"/><rect x="194.0" y="120.0" width="20.6" height="55.3" fill="rgb(200,235,253)"/><rect x="214.3" y="120.0" width="20.6" height="55.3" fill="rgb(157,221,252)"/><rect x="234.7" y="120.0" width="20.6" height="55.3" fill="rgb(185,231,253)"/><rect x="255.0" y="120.0" width="20.6" height="55.3" fill="rgb(240,249,255)"/><rect x="275.3" y="120.0" width="20.6" height="55.3" fill="rgb(182,230,253)"/><rect x="295.7" y="120.0" width="20.6" height="55.3" fill="rgb(99,178,247)"/><rect x="316.0" y="120.0" width="20.6" height="55.3" fill="rgb(117,200,250)"/><rect x="336.3" y="120.0" width="20.6" height="55.3" fill="rgb(157,221,252)"/><rect x="356.7" y="120.0" width="20.6" height="55.3" fill="rgb(141,216,252)"/><rect x="377.0" y="120.0" width="20.6" height="55.3" fill="rgb(155,221,252)"/><rect x="397.3" y="120.0" width="20.6" height="55.3" fill="rgb(157,221,252)"/><rect x="417.7" y="120.0" width="20.6" height="55.3" fill="rgb(189,232,253)"/><rect x="438.0" y="120.0" width="20.6" height="55.3" fill="rgb(176,227,253)"/><rect x="458.3" y="120.0" width="20.6" height="55.3" fill="rgb(151,219,252)"/><rect x="478.7" y="120.0" width="20.6" height="55.3" fill="rgb(96,174,246)"/><rect x="499.0" y="120.0" width="20.6" height="55.3" fill="rgb(166,224,253)"/><rect x="519.3" y="120.0" width="20.6" height="55.3" fill="rgb(123,209,251)"/><rect x="539.7" y="120.0" width="20.6" height="55.3" fill="rgb(117,201,250)"/><rect x="560.0" y="120.0" width="20.6" height="55.3" fill="rgb(176,227,253)"/><rect x="580.3" y="120.0" width="20.6" height="55.3" fill="rgb(211,239,254)"/><rect x="600.7" y="120.0" width="20.6" height="55.3" fill="rgb(179,229,253)"/><rect x="621.0" y="120.0" width="20.6" height="55.3" fill="rgb(136,214,252)"/><rect x="641.3" y="120.0" width="20.6" height="55.3" fill="rgb(200,235,253)"/><rect x="661.7" y="120.0" width="20.6" height="55.3" fill="rgb(164,224,253)"/><rect x="682.0" y="120.0" width="20.6" height="55.3" fill="rgb(142,216,252)"/><rect x="702.3" y="120.0" width="20.6" height="55.3" fill="rgb(117,201,250)"/><rect x="722.7" y="120.0" width="20.6" height="55.3" fill="rgb(174,227,253)"/><rect x="743.0" y="120.0" width="20.6" height="55.3" fill="rgb(187,231,253)"/><rect x="763.3" y="120.0" width="20.6" height="55.3" fill="rgb(166,224,253)"/><rect x="783.7" y="120.0" width="20.6" height="55.3" fill="rgb(198,235,253)"/><rect x="804.0" y="120.0" width="20.6" height="55.3" fill="rgb(200,236,253)"/><rect x="824.3" y="120.0" width="20.6" height="55.3" fill="rgb(184,230,253)"/><rect x="844.7" y="120.0" width="20.6" height="55.3" fill="rgb(123,208,251)"/><rect x="865.0" y="120.0" width="20.6" height="55.3" fill="rgb(92,170,245)"/><rect x="885.3" y="120.0" width="20.6" height="55.3" fill="rgb(151,219,252)"/><rect x="905.7" y="120.0" width="20.6" height="55.3" fill="rgb(74,146,242)"/><rect x="926.0" y="120.0" width="20.6" height="55.3" fill="rgb(220,38,38)"/><rect x="946.3" y="120.0" width="20.6" height="55.3" fill="rgb(141,54,201)"/><rect x="966.7" y="120.0" width="20.6" height="55.3" fill="rgb(109,64,236)"/><rect x="987.0" y="120.0" width="20.6" height="55.3" fill="rgb(69,83,235)"/><rect x="1007.3" y="120.0" width="20.6" height="55.3" fill="rgb(179,46,121)"/><rect x="1027.7" y="120.0" width="20.6" height="55.3" fill="rgb(168,48,145)"/><rect x="72.0" y="175.0" width="20.6" height="55.3" fill="rgb(203,236,254)"/><rect x="92.3" y="175.0" width="20.6" height="55.3" fill="rgb(219,242,254)"/><rect x="112.7" y="175.0" width="20.6" height="55.3" fill="rgb(226,244,254)"/><rect x="133.0" y="175.0" width="20.6" height="55.3" fill="rgb(237,248,254)"/><rect x="153.3" y="175.0" width="20.6" height="55.3" fill="rgb(207,238,254)"/><rect x="173.7" y="175.0" width="20.6" height="55.3" fill="rgb(231,246,254)"/><rect x="194.0" y="175.0" width="20.6" height="55.3" fill="rgb(223,243,254)"/><rect x="214.3" y="175.0" width="20.6" height="55.3" fill="rgb(218,242,254)"/><rect x="234.7" y="175.0" width="20.6" height="55.3" fill="rgb(222,243,254)"/><rect x="255.0" y="175.0" width="20.6" height="55.3" fill="rgb(221,242,254)"/><rect x="275.3" y="175.0" width="20.6" height="55.3" fill="rgb(240,249,255)"/><rect x="295.7" y="175.0" width="20.6" height="55.3" fill="rgb(217,241,254)"/><rect x="316.0" y="175.0" width="20.6" height="55.3" fill="rgb(223,243,254)"/><rect x="336.3" y="175.0" width="20.6" height="55.3" fill="rgb(225,244,254)"/><rect x="356.7" y="175.0" width="20.6" height="55.3" fill="rgb(224,243,254)"/><rect x="377.0" y="175.0" width="20.6" height="55.3" fill="rgb(231,246,254)"/><rect x="397.3" y="175.0" width="20.6" height="55.3" fill="rgb(219,242,254)"/><rect x="417.7" y="175.0" width="20.6" height="55.3" fill="rgb(237,248,254)"/><rect x="438.0" y="175.0" width="20.6" height="55.3" fill="rgb(228,245,254)"/><rect x="458.3" y="175.0" width="20.6" height="55.3" fill="rgb(219,242,254)"/><rect x="478.7" y="175.0" width="20.6" height="55.3" fill="rgb(215,241,254)"/><rect x="499.0" y="175.0" width="20.6" height="55.3" fill="rgb(230,246,254)"/><rect x="519.3" y="175.0" width="20.6" height="55.3" fill="rgb(217,241,254)"/><rect x="539.7" y="175.0" width="20.6" height="55.3" fill="rgb(229,245,254)"/><rect x="560.0" y="175.0" width="20.6" height="55.3" fill="rgb(221,242,254)"/><rect x="580.3" y="175.0" width="20.6" height="55.3" fill="rgb(214,240,254)"/><rect x="600.7" y="175.0" width="20.6" height="55.3" fill="rgb(225,244,254)"/><rect x="621.0" y="175.0" width="20.6" height="55.3" fill="rgb(219,242,254)"/><rect x="641.3" y="175.0" width="20.6" height="55.3" fill="rgb(221,242,254)"/><rect x="661.7" y="175.0" width="20.6" height="55.3" fill="rgb(230,245,254)"/><rect x="682.0" y="175.0" width="20.6" height="55.3" fill="rgb(226,244,254)"/><rect x="702.3" y="175.0" width="20.6" height="55.3" fill="rgb(222,243,254)"/><rect x="722.7" y="175.0" width="20.6" height="55.3" fill="rgb(192,233,253)"/><rect x="743.0" y="175.0" width="20.6" height="55.3" fill="rgb(162,223,252)"/><rect x="763.3" y="175.0" width="20.6" height="55.3" fill="rgb(144,217,252)"/><rect x="783.7" y="175.0" width="20.6" height="55.3" fill="rgb(117,201,250)"/><rect x="804.0" y="175.0" width="20.6" height="55.3" fill="rgb(87,162,244)"/><rect x="824.3" y="175.0" width="20.6" height="55.3" fill="rgb(50,116,237)"/><rect x="844.7" y="175.0" width="20.6" height="55.3" fill="rgb(86,75,236)"/><rect x="865.0" y="175.0" width="20.6" height="55.3" fill="rgb(129,56,225)"/><rect x="885.3" y="175.0" width="20.6" height="55.3" fill="rgb(162,49,157)"/><rect x="905.7" y="175.0" width="20.6" height="55.3" fill="rgb(220,38,38)"/><rect x="926.0" y="175.0" width="20.6" height="55.3" fill="rgb(214,39,49)"/><rect x="946.3" y="175.0" width="20.6" height="55.3" fill="rgb(180,46,119)"/><rect x="966.7" y="175.0" width="20.6" height="55.3" fill="rgb(209,40,60)"/><rect x="987.0" y="175.0" width="20.6" height="55.3" fill="rgb(186,45,107)"/><rect x="1007.3" y="175.0" width="20.6" height="55.3" fill="rgb(188,44,102)"/><rect x="1027.7" y="175.0" width="20.6" height="55.3" fill="rgb(197,42,84)"/><rect x="72.0" y="230.0" width="20.6" height="55.3" fill="rgb(200,235,253)"/><rect x="92.3" y="230.0" width="20.6" height="55.3" fill="rgb(214,240,254)"/><rect x="112.7" y="230.0" width="20.6" height="55.3" fill="rgb(226,244,254)"/><rect x="133.0" y="230.0" width="20.6" height="55.3" fill="rgb(233,246,254)"/><rect x="153.3" y="230.0" width="20.6" height="55.3" fill="rgb(201,236,253)"/><rect x="173.7" y="230.0" width="20.6" height="55.3" fill="rgb(234,247,254)"/><rect x="194.0" y="230.0" width="20.6" height="55.3" fill="rgb(229,245,254)"/><rect x="214.3" y="230.0" width="20.6" height="55.3" fill="rgb(219,242,254)"/><rect x="234.7" y="230.0" width="20.6" height="55.3" fill="rgb(221,242,254)"/><rect x="255.0" y="230.0" width="20.6" height="55.3" fill="rgb(220,242,254)"/><rect x="275.3" y="230.0" width="20.6" height="55.3" fill="rgb(238,248,254)"/><rect x="295.7" y="230.0" width="20.6" height="55.3" fill="rgb(217,241,254)"/><rect x="316.0" y="230.0" width="20.6" height="55.3" fill="rgb(223,243,254)"/><rect x="336.3" y="230.0" width="20.6" height="55.3" fill="rgb(228,245,254)"/><rect x="356.7" y="230.0" width="20.6" height="55.3" fill="rgb(221,242,254)"/><rect x="377.0" y="230.0" width="20.6" height="55.3" fill="rgb(230,245,254)"/><rect x="397.3" y="230.0" width="20.6" height="55.3" fill="rgb(214,240,254)"/><rect x="417.7" y="230.0" width="20.6" height="55.3" fill="rgb(240,249,255)"/><rect x="438.0" y="230.0" width="20.6" height="55.3" fill="rgb(230,245,254)"/><rect x="458.3" y="230.0" width="20.6" height="55.3" fill="rgb(219,242,254)"/><rect x="478.7" y="230.0" width="20.6" height="55.3" fill="rgb(209,238,254)"/><rect x="499.0" y="230.0" width="20.6" height="55.3" fill="rgb(226,244,254)"/><rect x="519.3" y="230.0" width="20.6" height="55.3" fill="rgb(216,241,254)"/><rect x="539.7" y="230.0" width="20.6" height="55.3" fill="rgb(227,244,254)"/><rect x="560.0" y="230.0" width="20.6" height="55.3" fill="rgb(220,242,254)"/><rect x="580.3" y="230.0" width="20.6" height="55.3" fill="rgb(217,241,254)"/><rect x="600.7" y="230.0" width="20.6" height="55.3" fill="rgb(223,243,254)"/><rect x="621.0" y="230.0" width="20.6" height="55.3" fill="rgb(223,243,254)"/><rect x="641.3" y="230.0" width="20.6" height="55.3" fill="rgb(223,243,254)"/><rect x="661.7" y="230.0" width="20.6" height="55.3" fill="rgb(229,245,254)"/><rect x="682.0" y="230.0" width="20.6" height="55.3" fill="rgb(225,244,254)"/><rect x="702.3" y="230.0" width="20.6" height="55.3" fill="rgb(225,244,254)"/><rect x="722.7" y="230.0" width="20.6" height="55.3" fill="rgb(218,242,254)"/><rect x="743.0" y="230.0" width="20.6" height="55.3" fill="rgb(217,241,254)"/><rect x="763.3" y="230.0" width="20.6" height="55.3" fill="rgb(219,242,254)"/><rect x="783.7" y="230.0" width="20.6" height="55.3" fill="rgb(213,240,254)"/><rect x="804.0" y="230.0" width="20.6" height="55.3" fill="rgb(233,246,254)"/><rect x="824.3" y="230.0" width="20.6" height="55.3" fill="rgb(208,238,254)"/><rect x="844.7" y="230.0" width="20.6" height="55.3" fill="rgb(214,240,254)"/><rect x="865.0" y="230.0" width="20.6" height="55.3" fill="rgb(212,239,254)"/><rect x="885.3" y="230.0" width="20.6" height="55.3" fill="rgb(187,231,253)"/><rect x="905.7" y="230.0" width="20.6" height="55.3" fill="rgb(55,123,238)"/><rect x="926.0" y="230.0" width="20.6" height="55.3" fill="rgb(115,62,236)"/><rect x="946.3" y="230.0" width="20.6" height="55.3" fill="rgb(171,48,138)"/><rect x="966.7" y="230.0" width="20.6" height="55.3" fill="rgb(196,42,87)"/><rect x="987.0" y="230.0" width="20.6" height="55.3" fill="rgb(187,44,105)"/><rect x="1007.3" y="230.0" width="20.6" height="55.3" fill="rgb(188,44,102)"/><rect x="1027.7" y="230.0" width="20.6" height="55.3" fill="rgb(220,38,38)"/><rect x="72.0" y="285.0" width="20.6" height="55.3" fill="rgb(177,228,253)"/><rect x="92.3" y="285.0" width="20.6" height="55.3" fill="rgb(142,216,252)"/><rect x="112.7" y="285.0" width="20.6" height="55.3" fill="rgb(183,230,253)"/><rect x="133.0" y="285.0" width="20.6" height="55.3" fill="rgb(104,184,247)"/><rect x="153.3" y="285.0" width="20.6" height="55.3" fill="rgb(125,211,252)"/><rect x="173.7" y="285.0" width="20.6" height="55.3" fill="rgb(140,216,252)"/><rect x="194.0" y="285.0" width="20.6" height="55.3" fill="rgb(105,186,248)"/><rect x="214.3" y="285.0" width="20.6" height="55.3" fill="rgb(167,224,253)"/><rect x="234.7" y="285.0" width="20.6" height="55.3" fill="rgb(207,238,254)"/><rect x="255.0" y="285.0" width="20.6" height="55.3" fill="rgb(176,227,253)"/><rect x="275.3" y="285.0" width="20.6" height="55.3" fill="rgb(238,248,254)"/><rect x="295.7" y="285.0" width="20.6" height="55.3" fill="rgb(109,191,248)"/><rect x="316.0" y="285.0" width="20.6" height="55.3" fill="rgb(221,243,254)"/><rect x="336.3" y="285.0" width="20.6" height="55.3" fill="rgb(129,212,252)"/><rect x="356.7" y="285.0" width="20.6" height="55.3" fill="rgb(155,221,252)"/><rect x="377.0" y="285.0" width="20.6" height="55.3" fill="rgb(97,175,246)"/><rect x="397.3" y="285.0" width="20.6" height="55.3" fill="rgb(67,138,240)"/><rect x="417.7" y="285.0" width="20.6" height="55.3" fill="rgb(190,232,253)"/><rect x="438.0" y="285.0" width="20.6" height="55.3" fill="rgb(114,197,249)"/><rect x="458.3" y="285.0" width="20.6" height="55.3" fill="rgb(156,221,252)"/><rect x="478.7" y="285.0" width="20.6" height="55.3" fill="rgb(199,235,253)"/><rect x="499.0" y="285.0" width="20.6" height="55.3" fill="rgb(197,235,253)"/><rect x="519.3" y="285.0" width="20.6" height="55.3" fill="rgb(189,232,253)"/><rect x="539.7" y="285.0" width="20.6" height="55.3" fill="rgb(240,249,255)"/><rect x="560.0" y="285.0" width="20.6" height="55.3" fill="rgb(171,226,253)"/><rect x="580.3" y="285.0" width="20.6" height="55.3" fill="rgb(180,229,253)"/><rect x="600.7" y="285.0" width="20.6" height="55.3" fill="rgb(82,157,243)"/><rect x="621.0" y="285.0" width="20.6" height="55.3" fill="rgb(152,220,252)"/><rect x="641.3" y="285.0" width="20.6" height="55.3" fill="rgb(177,228,253)"/><rect x="661.7" y="285.0" width="20.6" height="55.3" fill="rgb(176,228,253)"/><rect x="682.0" y="285.0" width="20.6" height="55.3" fill="rgb(111,193,249)"/><rect x="702.3" y="285.0" width="20.6" height="55.3" fill="rgb(166,224,253)"/><rect x="722.7" y="285.0" width="20.6" height="55.3" fill="rgb(93,170,245)"/><rect x="743.0" y="285.0" width="20.6" height="55.3" fill="rgb(163,223,253)"/><rect x="763.3" y="285.0" width="20.6" height="55.3" fill="rgb(159,222,252)"/><rect x="783.7" y="285.0" width="20.6" height="55.3" fill="rgb(145,217,252)"/><rect x="804.0" y="285.0" width="20.6" height="55.3" fill="rgb(96,174,246)"/><rect x="824.3" y="285.0" width="20.6" height="55.3" fill="rgb(172,226,253)"/><rect x="844.7" y="285.0" width="20.6" height="55.3" fill="rgb(163,223,253)"/><rect x="865.0" y="285.0" width="20.6" height="55.3" fill="rgb(235,247,254)"/><rect x="885.3" y="285.0" width="20.6" height="55.3" fill="rgb(209,238,254)"/><rect x="905.7" y="285.0" width="20.6" height="55.3" fill="rgb(39,102,235)"/><rect x="926.0" y="285.0" width="20.6" height="55.3" fill="rgb(220,38,38)"/><rect x="946.3" y="285.0" width="20.6" height="55.3" fill="rgb(168,48,144)"/><rect x="966.7" y="285.0" width="20.6" height="55.3" fill="rgb(65,85,235)"/><rect x="987.0" y="285.0" width="20.6" height="55.3" fill="rgb(101,181,247)"/><rect x="1007.3" y="285.0" width="20.6" height="55.3" fill="rgb(137,55,209)"/><rect x="1027.7" y="285.0" width="20.6" height="55.3" fill="rgb(40,103,235)"/><rect x="72.0" y="340.0" width="20.6" height="55.3" fill="rgb(91,73,236)"/><rect x="92.3" y="340.0" width="20.6" height="55.3" fill="rgb(193,43,93)"/><rect x="112.7" y="340.0" width="20.6" height="55.3" fill="rgb(100,69,236)"/><rect x="133.0" y="340.0" width="20.6" height="55.3" fill="rgb(213,39,50)"/><rect x="153.3" y="340.0" width="20.6" height="55.3" fill="rgb(49,93,235)"/><rect x="173.7" y="340.0" width="20.6" height="55.3" fill="rgb(79,79,235)"/><rect x="194.0" y="340.0" width="20.6" height="55.3" fill="rgb(240,249,255)"/><rect x="214.3" y="340.0" width="20.6" height="55.3" fill="rgb(58,126,239)"/><rect x="234.7" y="340.0" width="20.6" height="55.3" fill="rgb(238,248,254)"/><rect x="255.0" y="340.0" width="20.6" height="55.3" fill="rgb(53,120,238)"/><rect x="275.3" y="340.0" width="20.6" height="55.3" fill="rgb(84,158,244)"/><rect x="295.7" y="340.0" width="20.6" height="55.3" fill="rgb(162,49,156)"/><rect x="316.0" y="340.0" width="20.6" height="55.3" fill="rgb(111,193,249)"/><rect x="336.3" y="340.0" width="20.6" height="55.3" fill="rgb(42,105,235)"/><rect x="356.7" y="340.0" width="20.6" height="55.3" fill="rgb(47,112,237)"/><rect x="377.0" y="340.0" width="20.6" height="55.3" fill="rgb(115,61,236)"/><rect x="397.3" y="340.0" width="20.6" height="55.3" fill="rgb(87,163,244)"/><rect x="417.7" y="340.0" width="20.6" height="55.3" fill="rgb(109,191,249)"/><rect x="438.0" y="340.0" width="20.6" height="55.3" fill="rgb(222,243,254)"/><rect x="458.3" y="340.0" width="20.6" height="55.3" fill="rgb(90,167,245)"/><rect x="478.7" y="340.0" width="20.6" height="55.3" fill="rgb(114,62,236)"/><rect x="499.0" y="340.0" width="20.6" height="55.3" fill="rgb(109,64,236)"/><rect x="519.3" y="340.0" width="20.6" height="55.3" fill="rgb(54,121,238)"/><rect x="539.7" y="340.0" width="20.6" height="55.3" fill="rgb(210,239,254)"/><rect x="560.0" y="340.0" width="20.6" height="55.3" fill="rgb(135,55,212)"/><rect x="580.3" y="340.0" width="20.6" height="55.3" fill="rgb(200,42,78)"/><rect x="600.7" y="340.0" width="20.6" height="55.3" fill="rgb(58,88,235)"/><rect x="621.0" y="340.0" width="20.6" height="55.3" fill="rgb(180,229,253)"/><rect x="641.3" y="340.0" width="20.6" height="55.3" fill="rgb(65,135,240)"/><rect x="661.7" y="340.0" width="20.6" height="55.3" fill="rgb(90,166,245)"/><rect x="682.0" y="340.0" width="20.6" height="55.3" fill="rgb(38,101,235)"/><rect x="702.3" y="340.0" width="20.6" height="55.3" fill="rgb(141,216,252)"/><rect x="722.7" y="340.0" width="20.6" height="55.3" fill="rgb(107,65,236)"/><rect x="743.0" y="340.0" width="20.6" height="55.3" fill="rgb(56,89,235)"/><rect x="763.3" y="340.0" width="20.6" height="55.3" fill="rgb(150,219,252)"/><rect x="783.7" y="340.0" width="20.6" height="55.3" fill="rgb(57,89,235)"/><rect x="804.0" y="340.0" width="20.6" height="55.3" fill="rgb(45,94,235)"/><rect x="824.3" y="340.0" width="20.6" height="55.3" fill="rgb(129,56,226)"/><rect x="844.7" y="340.0" width="20.6" height="55.3" fill="rgb(48,93,235)"/><rect x="865.0" y="340.0" width="20.6" height="55.3" fill="rgb(114,197,249)"/><rect x="885.3" y="340.0" width="20.6" height="55.3" fill="rgb(74,147,242)"/><rect x="905.7" y="340.0" width="20.6" height="55.3" fill="rgb(71,82,235)"/><rect x="926.0" y="340.0" width="20.6" height="55.3" fill="rgb(127,211,252)"/><rect x="946.3" y="340.0" width="20.6" height="55.3" fill="rgb(65,135,240)"/><rect x="966.7" y="340.0" width="20.6" height="55.3" fill="rgb(220,38,38)"/><rect x="987.0" y="340.0" width="20.6" height="55.3" fill="rgb(77,79,235)"/><rect x="1007.3" y="340.0" width="20.6" height="55.3" fill="rgb(128,56,226)"/><rect x="1027.7" y="340.0" width="20.6" height="55.3" fill="rgb(193,43,93)"/><rect x="72.0" y="395.0" width="20.6" height="55.3" fill="rgb(214,240,254)"/><rect x="92.3" y="395.0" width="20.6" height="55.3" fill="rgb(226,244,254)"/><rect x="112.7" y="395.0" width="20.6" height="55.3" fill="rgb(227,244,254)"/><rect x="133.0" y="395.0" width="20.6" height="55.3" fill="rgb(217,241,254)"/><rect x="153.3" y="395.0" width="20.6" height="55.3" fill="rgb(227,244,254)"/><rect x="173.7" y="395.0" width="20.6" height="55.3" fill="rgb(225,244,254)"/><rect x="194.0" y="395.0" width="20.6" height="55.3" fill="rgb(212,240,254)"/><rect x="214.3" y="395.0" width="20.6" height="55.3" fill="rgb(217,241,254)"/><rect x="234.7" y="395.0" width="20.6" height="55.3" fill="rgb(217,241,254)"/><rect x="255.0" y="395.0" width="20.6" height="55.3" fill="rgb(229,245,254)"/><rect x="275.3" y="395.0" width="20.6" height="55.3" fill="rgb(220,242,254)"/><rect x="295.7" y="395.0" width="20.6" height="55.3" fill="rgb(233,246,254)"/><rect x="316.0" y="395.0" width="20.6" height="55.3" fill="rgb(221,242,254)"/><rect x="336.3" y="395.0" width="20.6" height="55.3" fill="rgb(216,241,254)"/><rect x="356.7" y="395.0" width="20.6" height="55.3" fill="rgb(214,240,254)"/><rect x="377.0" y="395.0" width="20.6" height="55.3" fill="rgb(231,246,254)"/><rect x="397.3" y="395.0" width="20.6" height="55.3" fill="rgb(218,241,254)"/><rect x="417.7" y="395.0" width="20.6" height="55.3" fill="rgb(232,246,254)"/><rect x="438.0" y="395.0" width="20.6" height="55.3" fill="rgb(229,245,254)"/><rect x="458.3" y="395.0" width="20.6" height="55.3" fill="rgb(234,247,254)"/><rect x="478.7" y="395.0" width="20.6" height="55.3" fill="rgb(227,244,254)"/><rect x="499.0" y="395.0" width="20.6" height="55.3" fill="rgb(210,239,254)"/><rect x="519.3" y="395.0" width="20.6" height="55.3" fill="rgb(235,247,254)"/><rect x="539.7" y="395.0" width="20.6" height="55.3" fill="rgb(225,244,254)"/><rect x="560.0" y="395.0" width="20.6" height="55.3" fill="rgb(230,246,254)"/><rect x="580.3" y="395.0" width="20.6" height="55.3" fill="rgb(218,241,254)"/><rect x="600.7" y="395.0" width="20.6" height="55.3" fill="rgb(224,243,254)"/><rect x="621.0" y="395.0" width="20.6" height="55.3" fill="rgb(231,246,254)"/><rect x="641.3" y="395.0" width="20.6" height="55.3" fill="rgb(224,244,254)"/><rect x="661.7" y="395.0" width="20.6" height="55.3" fill="rgb(240,249,255)"/><rect x="682.0" y="395.0" width="20.6" height="55.3" fill="rgb(229,245,254)"/><rect x="702.3" y="395.0" width="20.6" height="55.3" fill="rgb(124,210,251)"/><rect x="722.7" y="395.0" width="20.6" height="55.3" fill="rgb(111,193,249)"/><rect x="743.0" y="395.0" width="20.6" height="55.3" fill="rgb(160,222,252)"/><rect x="763.3" y="395.0" width="20.6" height="55.3" fill="rgb(43,107,236)"/><rect x="783.7" y="395.0" width="20.6" height="55.3" fill="rgb(125,211,252)"/><rect x="804.0" y="395.0" width="20.6" height="55.3" fill="rgb(109,191,249)"/><rect x="824.3" y="395.0" width="20.6" height="55.3" fill="rgb(220,38,38)"/><rect x="844.7" y="395.0" width="20.6" height="55.3" fill="rgb(46,94,235)"/><rect x="865.0" y="395.0" width="20.6" height="55.3" fill="rgb(103,67,236)"/><rect x="885.3" y="395.0" width="20.6" height="55.3" fill="rgb(131,56,221)"/><rect x="905.7" y="395.0" width="20.6" height="55.3" fill="rgb(109,64,236)"/><rect x="926.0" y="395.0" width="20.6" height="55.3" fill="rgb(145,53,191)"/><rect x="946.3" y="395.0" width="20.6" height="55.3" fill="rgb(131,56,220)"/><rect x="966.7" y="395.0" width="20.6" height="55.3" fill="rgb(124,57,236)"/><rect x="987.0" y="395.0" width="20.6" height="55.3" fill="rgb(112,63,236)"/><rect x="1007.3" y="395.0" width="20.6" height="55.3" fill="rgb(93,72,236)"/><rect x="1027.7" y="395.0" width="20.6" height="55.3" fill="rgb(135,55,214)"/>
  <text x="18" y="151.5" font-family="Arial" font-size="12" fill="#334155">delta</text><text x="18" y="206.5" font-family="Arial" font-size="12" fill="#334155">theta</text><text x="18" y="261.5" font-family="Arial" font-size="12" fill="#334155">alpha</text><text x="18" y="316.5" font-family="Arial" font-size="12" fill="#334155">beta</text><text x="18" y="371.5" font-family="Arial" font-size="12" fill="#334155">gamma</text><text x="18" y="426.5" font-family="Arial" font-size="12" fill="#334155">hfo</text><text x="72.0" y="478" font-family="Arial" font-size="11" fill="#64748b">0s</text><text x="194.0" y="478" font-family="Arial" font-size="11" fill="#64748b">11s</text><text x="316.0" y="478" font-family="Arial" font-size="11" fill="#64748b">22s</text><text x="438.0" y="478" font-family="Arial" font-size="11" fill="#64748b">33s</text><text x="560.0" y="478" font-family="Arial" font-size="11" fill="#64748b">44s</text><text x="682.0" y="478" font-family="Arial" font-size="11" fill="#64748b">55s</text><text x="804.0" y="478" font-family="Arial" font-size="11" fill="#64748b">66s</text><text x="926.0" y="478" font-family="Arial" font-size="11" fill="#64748b">77s</text>
  <text x="72" y="520" font-family="Arial" font-size="12" fill="#64748b">Generated from synthetic WindowFeatures as a dependency-free image-style EEG representation for CNN/pretrained-model design review.</text>
</svg>
